<svg
   xmlns:dc="http://purl.org/dc/elements/1.1/"
   xmlns:cc="http://creativecommons.org/ns#"
   xmlns:rdf="http://www.w3.org/1999/02/22-rdf-syntax-ns#"
   xmlns:svg="http://www.w3.org/2000/svg"
   xmlns="http://www.w3.org/2000/svg"
   xmlns:xlink="http://www.w3.org/1999/xlink"
   xmlns:sodipodi="http://sodipodi.sourceforge.net/DTD/sodipodi-0.dtd"
   xmlns:inkscape="http://www.inkscape.org/namespaces/inkscape"
   version="1.0"
   width="200"
   height="160"
   id="svg2"
   inkscape:version="0.48.5 r10040"
   sodipodi:docname="5-Band_Resistor.svg">
  <metadata
     id="metadata31">
    <rdf:RDF>
      <cc:Work
         rdf:about="">
        <dc:format>image/svg+xml</dc:format>
        <dc:type
           rdf:resource="http://purl.org/dc/dcmitype/StillImage" />
      </cc:Work>
    </rdf:RDF>
  </metadata>
  <sodipodi:namedview
     pagecolor="#ffffff"
     bordercolor="#666666"
     borderopacity="1"
     objecttolerance="10"
     gridtolerance="10"
     guidetolerance="10"
     inkscape:pageopacity="0"
     inkscape:pageshadow="2"
     inkscape:window-width="2560"
     inkscape:window-height="1645"
     id="namedview29"
     showgrid="false"
     inkscape:zoom="5.9"
     inkscape:cx="42.070856"
     inkscape:cy="64.72294"
     inkscape:window-x="-2"
     inkscape:window-y="-3"
     inkscape:window-maximized="1"
     inkscape:current-layer="svg2" />
  <!-- source: https://commons.wikimedia.org/wiki/File:4-Band_Resistor.svg -->
  <path
     inkscape:connector-curvature="0"
     id="path7450"
     style="fill:#ccccff;fill-opacity:1;fill-rule:evenodd;stroke:#000000;stroke-width:1px;stroke-linecap:butt;stroke-linejoin:miter;stroke-opacity:1"
     d="m 25.577023,45.904888 c 0,-25 24.999999,-25 34.999999,-25 10,0 14.999999,5 39.999998,5 25,0 30,-5 40,-5 10,0 35,0 35,25 0,25 -25,25 -35,25 -10,0 -15,-5 -40,-5 -24.999999,0 -29.999998,5 -39.999998,5 -10,0 -34.798164,0.7156 -34.999999,-25 z" />
  <defs
     id="defs4">
    <linearGradient
       id="linearGradient3938">
      <stop
         style="stop-color:{{.Tolerance.Color}};stop-opacity:1"
         offset="0"
         id="stop3940" />
      <stop
         style="stop-color:{{.Tolerance.Color}};stop-opacity:0.74901962"
         offset="0.25"
         id="stop3948" />
      <stop
         style="stop-color:{{.Tolerance.Color}};stop-opacity:0.49803922"
         offset="1"
         id="stop3946" />
    </linearGradient>
    <linearGradient
       x1="120"
       y1="45.5"
       x2="130"
       y2="45.5"
       id="linearGradient9206"
       xlink:href="#linearGradient3938"
       gradientUnits="userSpaceOnUse"
       gradientTransform="matrix(1,0,0,1.0614444,6.7885447,-2.3908328)" />
  </defs>
  <path
     inkscape:connector-curvature="0"
     id="path10128"
     style="fill:none;fill-opacity:0.75;fill-rule:evenodd;stroke:#000000;stroke-width:2.25;stroke-linecap:butt;stroke-linejoin:miter;stroke-miterlimit:4;stroke-dasharray:none;stroke-opacity:1"
     d="m 60,90 5,-5 0,-20" />
  <path
     inkscape:connector-curvature="0"
     id="path10130"
     style="fill:none;fill-opacity:0.75;fill-rule:evenodd;stroke:#000000;stroke-width:2.25;stroke-linecap:butt;stroke-linejoin:miter;stroke-miterlimit:4;stroke-dasharray:none;stroke-opacity:1"
     d="m 70,105 5,0 5,-5 0,-25 0,-10" />
  <path
     inkscape:connector-curvature="0"
     id="path10132"
     style="fill:none;stroke:#000000;stroke-width:2.25;stroke-linecap:butt;stroke-linejoin:miter;stroke-miterlimit:4;stroke-opacity:1;stroke-dasharray:none"
     d="m 118.92137,104.28091 -2.83537,-0.11985 -7.18356,-7.48318 0,-32.037426"
     sodipodi:nodetypes="cccc" />
  <path
     inkscape:connector-curvature="0"
     id="path10134"
     style="fill:none;stroke:#000000;stroke-width:2.09012294;stroke-linecap:butt;stroke-linejoin:miter;stroke-miterlimit:4;stroke-opacity:1;stroke-dasharray:none"
     d="m 137.15727,91.503208 -0.68545,0 -5,-4.31468 0,-17.258718"
     sodipodi:nodetypes="cccc" />
  <path
     inkscape:connector-curvature="0"
     id="path1307"
     d="m 60.077022,20.404888 0,50.359546 c 3.59375,0 6.537418,-0.645992 10,-1.479312 l 0,-47.400922 c -3.462582,-0.83332 -6.40625,-1.479312 -10,-1.479312 z"
     style="fill:{{.First.Color}};fill-opacity:1" />
  <path
     inkscape:connector-curvature="0"
     id="path1309"
     d="m 75.077021,23.436138 0,44.9375 c 2.756043,-0.609223 5.979632,-1.227657 10,-1.6875 l 0,-41.5625 c -4.020368,-0.459843 -7.243957,-1.078277 -10,-1.6875 z"
     style="fill:{{.Second.Color}};fill-opacity:1" />
  <path
     inkscape:connector-curvature="0"
     id="rect2188"
     d="m 90.077021,25.561138 0,40.6875 c 2.935691,-0.203523 6.232465,-0.333796 9.999999,-0.34375 l 0,-40 c -3.767534,-0.01 -7.064308,-0.140227 -9.999999,-0.34375 z"
     style="fill:{{.Third.Color}};fill-opacity:1" />
  <path
     inkscape:connector-curvature="0"
     id="rect2190"
     style="opacity:1;fill:url(#linearGradient9206);fill-opacity:1;stroke:none;stroke-width:1;stroke-linecap:square;stroke-miterlimit:4;stroke-dasharray:1, 1;stroke-dashoffset:0;stroke-opacity:1"
     d="m 136.78854,21.060455 c -2.7874,0.7102 -5.91713,1.511144 -10,2.189229 l 0,45.310408 c 4.08287,0.678085 7.2126,1.47903 10,2.189229 l 0,-49.688866 z" />
  <rect
     id="rect9208"
     style="opacity:1;fill:#000000;fill-opacity:0.27160495;stroke:#000000;stroke-width:0.82305491;stroke-linecap:square;stroke-miterlimit:4;stroke-dasharray:0.82305488, 0.82305488;stroke-dashoffset:0;stroke-opacity:1"
     y="40.904888"
     x="5.4157324"
     height="10"
     width="20.32258" />
  <rect
     id="rect10083"
     style="opacity:1;fill:#000000;fill-opacity:0.27160495;stroke:#000000;stroke-width:0.80977631;stroke-linecap:square;stroke-miterlimit:4;stroke-dasharray:0.80977632, 0.80977632;stroke-dashoffset:0;stroke-opacity:1"
     y="40.404888"
     x="175.40489"
     height="10"
     width="19.672131" />
  <text
     xml:space="preserve"
     id="text10112"
     style="font-style:normal;font-weight:normal;font-size:12px;font-family:Sans-Serif;text-align:end;text-anchor:end;fill:#000000;fill-opacity:1;stroke:none;stroke-width:1px;stroke-linecap:butt;stroke-linejoin:miter;stroke-opacity:1"
     y="95"
     x="146.07617"><tspan
       id="tspan10114"
       y="95"
       x="57.371094"
       style="text-align:end;text-anchor:end">{{.First.Digit}}</tspan></text>
  <text
     xml:space="preserve"
     id="text10116"
     style="font-style:normal;font-weight:normal;font-size:12px;font-family:Sans-Serif;text-align:end;text-anchor:end;fill:#000000;fill-opacity:1;stroke:none;stroke-width:1px;stroke-linecap:butt;stroke-linejoin:miter;stroke-opacity:1"
     y="109.11719"
     x="176.65234"><tspan
       id="tspan10118"
       y="109.11719"
       x="69.056641"
       style="text-align:end;text-anchor:end">{{.Second.Digit}}</tspan></text>
  <text
     xml:space="preserve"
     id="text10120"
     style="font-size:12px;font-style:normal;font-weight:normal;fill:#000000;fill-opacity:1;stroke:none;font-family:Sans-Serif"
     y="108.07603"
     x="119.73058"><tspan
       id="tspan10122"
       y="108.07603"
       x="119.73058">{{.Multiplier.Multiplier}}</tspan></text>
  <text
     xml:space="preserve"
     id="text10124"
     style="font-size:12px;font-style:normal;font-weight:normal;fill:#000000;fill-opacity:1;stroke:none;font-family:Sans-Serif"
     y="95.555374"
     x="137.60464"><tspan
       id="tspan10126"
       y="95.555374"
       x="137.60464">{{.Tolerance.Tolerance}}</tspan></text>
  <path
     inkscape:connector-curvature="0"
     id="rect2188-5"
     d="m 104.30193,25.560376 0,40.6875 c 2.93569,-0.203523 6.23247,-0.333796 10,-0.34375 l 0,-40 c -3.76753,-0.01 -7.06431,-0.140227 -10,-0.34375 z"
     style="fill:{{.Multiplier.Color}};fill-opacity:1" />
  <path
     inkscape:connector-curvature="0"
     id="path30"
     style="fill:none;fill-opacity:1;fill-rule:evenodd;stroke:#000000;stroke-width:1px;stroke-linecap:butt;stroke-linejoin:miter;stroke-opacity:1"
     d="m 25.577023,45.904888 c 0,-25 24.999999,-25 34.999999,-25 10,0 14.999999,5 39.999998,5 25,0 30,-5 40,-5 10,0 35,0 35,25 0,25 -25,25 -35,25 -10,0 -15,-5 -40,-5 -24.999999,0 -29.999998,5 -39.999998,5 -10,0 -34.798164,0.7156 -34.999999,-25 z" />
  <path
     inkscape:connector-curvature="0"
     id="path10130-5"
     style="fill:none;fill-opacity:0.75;fill-rule:evenodd;stroke:#000000;stroke-width:2.25;stroke-linecap:butt;stroke-linejoin:miter;stroke-miterlimit:4;stroke-dasharray:none;stroke-opacity:1"
     d="m 85.414543,117.72784 5,0 5,-5 0,-24.999995 -0.239697,-22.224558"
     sodipodi:nodetypes="ccccc" />
  <text
     xml:space="preserve"
     id="text10116-4"
     style="font-style:normal;font-weight:normal;font-size:12px;font-family:Sans-Serif;text-align:end;text-anchor:end;fill:#000000;fill-opacity:1;stroke:none;stroke-width:1px;stroke-linecap:butt;stroke-linejoin:miter;stroke-opacity:1"
     y="121.84503"
     x="192.06688"><tspan
       id="tspan10118-7"
       y="121.84503"
       x="84.471199"
       style="text-align:end;text-anchor:end">{{.Third.Digit}}</tspan></text>
  <text
     xml:space="preserve"
     id="text10116-4-5"
     style="font-size:12px;font-style:normal;font-weight:bold;text-align:center;text-anchor:middle;fill:#000000;fill-opacity:1;stroke:none;font-family:Sans-Serif"
     y="13.828724"
     x="184.12787"><tspan
       id="tspan10118-7-1"
       y="13.828724"
       x="100.52196"
       style="text-align:center;text-anchor:middle">{{.Value}}</tspan></text>
</svg>
